PathFileType	4	(X/Y/Z)	two_link_01.trc																
DataRate	CameraRate	NumFrames	NumMarkers	Units	OrigDataRate	OrigDataStartFrame	OrigNumFrames												
60	60	45	6	m	60	2211	2526												
Frame#	Time	Link2_Marker_1			Link2_Marker_2			Link2_Marker_3			Link1_Marker_1			Link1_Marker_2			Link1_Marker_3		
		X1	Y1	Z1	X2	Y2	Z2	X3	Y3	Z3	X4	Y4	Z4	X5	Y5	Z5	X6	Y6	Z6
																			
2211	0.434	0.3551672	0.32618245	0	0.3551672	0.32618245	0.1	0.32700233	0.42213421	0	0.08650227	0.24732081	0	0.08650227	0.24732081	0.1	0	0	81.60428288
2212	0.43402576	0.35517024	0.32617355	0	0.35517024	0.32617355	0.1	0.32700852	0.42212624	0	0.08650272	0.24732075	0	0.08650272	0.24732075	0.1	0	0	81.60417746
2213	0.43405153	0.35517329	0.32616466	0	0.35517329	0.32616466	0.1	0.32701472	0.42211827	0	0.08650318	0.24732068	0	0.08650318	0.24732068	0.1	0	0	81.60407203
2214	0.43418034	0.3551885	0.32612022	0	0.3551885	0.32612022	0.1	0.32704569	0.42207845	0	0.08650546	0.24732034	0	0.08650546	0.24732034	0.1	0	0	81.60354434
2215	0.43482441	0.35526443	0.32589822	0	0.35526443	0.32589822	0.1	0.3272003	0.42187949	0	0.08651687	0.24731866	0	0.08651687	0.24731866	0.1	0	0	81.60090128
2216	0.435	0.35528507	0.32583777	0	0.35528507	0.32583777	0.1	0.32724237	0.42182531	0	0.08651998	0.2473182	0	0.08651998	0.2473182	0.1	0	0	81.6001805
2217	0.43502585	0.35528811	0.32582888	0	0.35528811	0.32582888	0.1	0.32724855	0.42181734	0	0.08652044	0.24731813	0	0.08652044	0.24731813	0.1	0	0	81.60007451
2218	0.43505171	0.35529114	0.32582	0	0.35529114	0.32582	0.1	0.32725473	0.42180937	0	0.08652089	0.24731806	0	0.08652089	0.24731806	0.1	0	0	81.59996908
2219	0.43518098	0.35530629	0.32577558	0	0.35530629	0.32577558	0.1	0.32728563	0.42176955	0	0.08652317	0.24731773	0	0.08652317	0.24731773	0.1	0	0	81.59944139
2220	0.43582732	0.3553818	0.32555387	0	0.3553818	0.32555387	0.1	0.32743972	0.42157075	0	0.08653455	0.24731605	0	0.08653455	0.24731605	0.1	0	0	81.59680464
2221	0.436	0.3554019	0.32549476	0	0.3554019	0.32549476	0.1	0.32748077	0.42151773	0	0.08653759	0.2473156	0	0.08653759	0.2473156	0.1	0	0	81.59610047
2222	0.43602556	0.35540487	0.32548602	0	0.35540487	0.32548602	0.1	0.32748684	0.42150989	0	0.08653803	0.24731553	0	0.08653803	0.24731553	0.1	0	0	81.59599734
2223	0.43605112	0.35540784	0.32547728	0	0.35540784	0.32547728	0.1	0.3274929	0.42150205	0	0.08653848	0.24731547	0	0.08653848	0.24731547	0.1	0	0	81.59589363
2224	0.43617892	0.35542267	0.32543361	0	0.35542267	0.32543361	0.1	0.32752322	0.42146288	0	0.08654072	0.24731513	0	0.08654072	0.24731513	0.1	0	0	81.59537568
2225	0.43681794	0.35549667	0.32521546	0	0.35549667	0.32521546	0.1	0.32767454	0.42126716	0	0.08655192	0.24731348	0	0.08655192	0.24731348	0.1	0	0	81.59278133
2226	0.437	0.3555177	0.32515339	0	0.3555177	0.32515339	0.1	0.32771757	0.42121145	0	0.08655511	0.24731301	0	0.08655511	0.24731301	0.1	0	0	81.59204106
2227	0.43702563	0.35552065	0.32514466	0	0.35552065	0.32514466	0.1	0.32772361	0.42120362	0	0.08655556	0.24731294	0	0.08655556	0.24731294	0.1	0	0	81.59193793
2228	0.43705126	0.35552361	0.32513593	0	0.35552361	0.32513593	0.1	0.32772966	0.42119579	0	0.086556	0.24731288	0	0.086556	0.24731288	0.1	0	0	81.59183423
2229	0.43717941	0.35553836	0.32509232	0	0.35553836	0.32509232	0.1	0.32775987	0.42115665	0	0.08655824	0.24731255	0	0.08655824	0.24731255	0.1	0	0	81.59131627
2230	0.43782016	0.3556119	0.32487464	0	0.3556119	0.32487464	0.1	0.32791056	0.42096124	0	0.0865694	0.24731089	0	0.0865694	0.24731089	0.1	0	0	81.58872994
2231	0.438	0.35563247	0.32481366	0	0.35563247	0.32481366	0.1	0.32795275	0.42090649	0	0.08657253	0.24731043	0	0.08657253	0.24731043	0.1	0	0	81.58800458
2232	0.43802536	0.35563536	0.32480507	0	0.35563536	0.32480507	0.1	0.32795868	0.42089878	0	0.08657297	0.24731037	0	0.08657297	0.24731037	0.1	0	0	81.58790316
2233	0.43805072	0.35563826	0.32479649	0	0.35563826	0.32479649	0.1	0.32796462	0.42089107	0	0.08657341	0.2473103	0	0.08657341	0.2473103	0.1	0	0	81.58780175
2234	0.43817754	0.35565271	0.32475356	0	0.35565271	0.32475356	0.1	0.32799429	0.42085253	0	0.0865756	0.24730998	0	0.0865756	0.24730998	0.1	0	0	81.58729354
2235	0.43881159	0.35572485	0.32453918	0	0.35572485	0.32453918	0.1	0.32814241	0.42065999	0	0.0865866	0.24730835	0	0.0865866	0.24730835	0.1	0	0	81.58474617
2236	0.439	0.35574623	0.32447556	0	0.35574623	0.32447556	0.1	0.32818634	0.42060283	0	0.08658987	0.24730787	0	0.08658987	0.24730787	0.1	0	0	81.58398814
2237	0.43902541	0.35574911	0.32446699	0	0.35574911	0.32446699	0.1	0.32819225	0.42059514	0	0.08659031	0.2473078	0	0.08659031	0.2473078	0.1	0	0	81.58388673
2238	0.43905082	0.35575198	0.32445843	0	0.35575198	0.32445843	0.1	0.32819816	0.42058744	0	0.08659075	0.24730774	0	0.08659075	0.24730774	0.1	0	0	81.58378532
2239	0.43917787	0.35576635	0.32441561	0	0.35576635	0.32441561	0.1	0.32822771	0.42054897	0	0.08659294	0.24730741	0	0.08659294	0.24730741	0.1	0	0	81.5832771
2240	0.4398131	0.35583798	0.32420187	0	0.35583798	0.32420187	0.1	0.3283751	0.4203569	0	0.08660389	0.24730579	0	0.08660389	0.24730579	0.1	0	0	81.58074005
2241	0.44	0.35585898	0.32413909	0	0.35585898	0.32413909	0.1	0.32841835	0.42030048	0	0.08660711	0.24730532	0	0.08660711	0.24730532	0.1	0	0	81.57999463
2242	0.44002516	0.3558618	0.32413065	0	0.3558618	0.32413065	0.1	0.32842416	0.42029289	0	0.08660754	0.24730525	0	0.08660754	0.24730525	0.1	0	0	81.57989493
2243	0.44005033	0.35586462	0.32412222	0	0.35586462	0.32412222	0.1	0.32842997	0.42028531	0	0.08660797	0.24730519	0	0.08660797	0.24730519	0.1	0	0	81.57979524
2244	0.44017615	0.35587871	0.32408004	0	0.35587871	0.32408004	0.1	0.32845901	0.42024739	0	0.08661012	0.24730487	0	0.08661012	0.24730487	0.1	0	0	81.57929619
2245	0.44080527	0.35594903	0.32386937	0	0.35594903	0.32386937	0.1	0.32860399	0.42005798	0	0.08662091	0.24730327	0	0.08662091	0.24730327	0.1	0	0	81.57679638
2246	0.441	0.35597074	0.32380424	0	0.35597074	0.32380424	0.1	0.32864879	0.41999941	0	0.08662426	0.24730278	0	0.08662426	0.24730278	0.1	0	0	81.57602059
2247	0.44102519	0.35597354	0.32379583	0	0.35597354	0.32379583	0.1	0.32865457	0.41999185	0	0.08662469	0.24730271	0	0.08662469	0.24730271	0.1	0	0	81.5759209
2248	0.44105038	0.35597634	0.32378742	0	0.35597634	0.32378742	0.1	0.32866035	0.41998428	0	0.08662512	0.24730265	0	0.08662512	0.24730265	0.1	0	0	81.5758212
2249	0.44117634	0.35599034	0.32374538	0	0.35599034	0.32374538	0.1	0.32868925	0.41994647	0	0.08662727	0.24730233	0	0.08662727	0.24730233	0.1	0	0	81.5753233
2250	0.44180613	0.3560601	0.3235355	0	0.3560601	0.3235355	0.1	0.3288334	0.41975767	0	0.08663801	0.24730074	0	0.08663801	0.24730074	0.1	0	0	81.57283437
2251	0.442	0.3560815	0.32347101	0	0.3560815	0.32347101	0.1	0.32887766	0.41969965	0	0.08664132	0.24730025	0	0.08664132	0.24730025	0.1	0	0	81.57206947
2252	0.44202497	0.35608425	0.32346271	0	0.35608425	0.32346271	0.1	0.32888335	0.41969218	0	0.08664174	0.24730019	0	0.08664174	0.24730019	0.1	0	0	81.5719715
2253	0.44204994	0.356087	0.32345442	0	0.356087	0.32345442	0.1	0.32888904	0.41968472	0	0.08664216	0.24730013	0	0.08664216	0.24730013	0.1	0	0	81.57187352
2254	0.44217479	0.35610074	0.32341297	0	0.35610074	0.32341297	0.1	0.32891747	0.41964742	0	0.08664427	0.24729981	0	0.08664427	0.24729981	0.1	0	0	81.57138422
2255	0.44279906	0.35616929	0.32320593	0	0.35616929	0.32320593	0.1	0.3290594	0.41946108	0	0.08665487	0.24729824	0	0.08665487	0.24729824	0.1	0	0	81.56892967
